PathFileType	4	(X/Y/Z)	C:\Users\°ÂÌØÂü\Desktop\20210112\bx_y_0_902-Unnamed.trc
DataRate	CameraRate	NumFrames	NumMarkers	Units	OrigDataRate	OrigDataStartFrame	OrigNumFrames
50.00	50.00	       8	0	mm	50.00	117	       466
Frame#	Time	
		

117	2.320	-671.62665	133.21727	1849.41467	-621.22223	113.23690	1436.69458	-592.87671	-0.13130	1046.24561	-579.84296	224.99774	1066.46973	-693.87231	84.52274	572.61914	-724.88232	253.37576	637.94952	-730.30560	249.12862	575.11676	-676.60791	208.89073	531.71014	-770.92523	256.81662	502.31049	-663.32397	-66.16466	164.00703	-716.22449	79.47208	215.51363	-603.02563	20.40701	165.75371	-674.47876	56.89771	155.95255	-711.09863	152.27873	216.36069	-795.94550	172.21333	183.91669	-771.03247	222.08546	204.99725	-594.48499	222.66698	173.38101	-882.61444	296.18411	144.54359	-561.16357	262.21606	165.99496	-667.24243	299.24219	159.87375	-630.00049	307.54239	162.29501	-528.11536	304.45233	146.53067	-694.51898	-65.94675	1546.68896	-790.35675	104.93681	1057.85608	-766.35168	-4.06157	207.63493	-794.43408	56.47765	174.95702	-765.60229	-31.10211	487.92648	-558.92499	-39.81618	164.22401	-876.03320	-78.59757	141.50241	-697.26788	-44.07733	716.78296	-720.04736	-20.62525	567.04468	-674.81696	171.63905	156.95073	-622.36810	-77.20144	159.43637	-637.11267	286.25214	875.59967				-517.72015	-72.88586	142.72130	-586.93677	1.41270	799.91504	-688.89258	277.20691	744.68341	-670.63953	23.08751	519.62543	-724.32013	297.99271	1529.43640	-580.80377	219.67502	811.23462				-691.00397	146.80515	571.45496	-706.41956	-24.27654	614.90613	-656.99695	-63.96965	855.61945	
118	2.340	-671.03070	133.19026	1849.33398	-620.99835	113.04966	1436.61719	-592.87671	-0.13130	1046.24561	-579.84296	224.99774	1066.46973	-694.40912	84.54475	572.25806	-724.90692	253.29196	638.08911	-730.37604	249.00102	574.98627	-676.55133	208.73773	531.76276	-770.92523	256.81662	502.31049	-663.24792	-66.12843	163.92929	-716.47699	79.34242	215.69691	-603.17566	20.43851	165.60051	-674.47876	56.89771	155.95255	-711.20422	152.13126	216.31964	-795.94550	172.21333	183.91669	-771.09198	222.42189	205.13831	-594.51178	222.76276	173.30977	-882.58575	296.13757	144.56622	-561.21527	262.31198	166.05746	-667.29504	299.35785	159.71159	-629.98047	307.63623	162.48920	-528.08679	304.23312	146.60699	-694.16034	-65.96531	1546.38550	-790.46899	104.69852	1057.90442	-766.50507	-4.17562	207.77855	-794.44348	56.53633	175.06004	-765.60846	-31.24025	487.97522	-559.08954	-39.57197	163.91743	-875.99139	-78.70409	141.37393	-697.26788	-44.07733	716.78296	-720.12976	-20.74866	567.22253	-674.56458	171.75276	157.07715	-622.37329	-77.30267	159.35718	-637.39142	286.13580	875.03851				-517.59998	-72.82465	142.80583	-586.94684	1.46595	799.88562	-688.80524	277.10046	744.19202	-670.63129	23.14736	519.45978	-723.78558	297.47116	1529.21143	-580.94440	219.57622	811.12598				-691.17609	146.73172	571.68713	-706.41211	-24.34741	614.81598	-657.00238	-63.82545	855.65515	
119	2.360	-670.04291	132.89151	1849.26685	-620.56897	113.02335	1436.52747	-592.86279	-0.17436	1046.32666	-579.84296	224.99774	1066.46973	-694.25433	84.50925	572.41235	-725.04681	253.22884	637.92987	-730.48346	248.55894	575.00781	-676.70093	208.69226	531.70294	-771.13263	256.90762	502.30643	-663.37634	-66.16262	164.09486	-716.11145	79.38630	215.40224	-603.14453	20.39984	165.67554	-674.47876	56.89771	155.95255	-711.15466	152.42155	216.23610	-796.01031	172.18362	184.08807	-771.09344	222.42096	205.31905	-594.48499	222.66698	173.38101	-882.58710	296.11533	144.55206	-561.05255	262.20197	166.13171	-667.24188	299.22467	159.58160	-629.98749	307.69446	162.45454	-528.16150	304.17200	146.42805	-693.77313	-66.07723	1546.52502	-790.34241	104.87567	1057.73230	-766.41846	-4.13553	207.74127	-794.37274	56.59369	175.02629	-765.62225	-31.13378	487.86322	-559.27118	-39.56627	164.00146	-875.99139	-78.70409	141.37393	-697.34735	-44.05350	716.68689	-719.94598	-20.61065	566.93469	-674.98474	171.68153	157.01532	-622.52289	-77.13731	159.29903	-637.56744	285.80075	875.27216				-517.59534	-72.73141	142.65703	-586.90265	1.36868	800.04047	-688.78302	276.73386	744.10883	-670.79132	23.19632	519.41626	-723.34100	297.30878	1529.18079	-580.81549	219.75887	811.19385				-691.33289	146.66940	571.51691	-706.58990	-24.25898	614.63928	-656.99695	-63.96965	855.61945	
120	2.380	-669.43604	132.53288	1849.35144	-620.56897	113.02335	1436.52747	-592.66742	-0.34673	1046.41345	-580.04413	224.76744	1066.29187	-693.97736	84.29256	572.44012	-724.98804	253.24211	637.83234	-730.43842	248.90321	574.99860	-676.49420	208.59309	531.74280	-770.98621	256.71973	502.27057	-663.42834	-66.16299	164.02443	-716.35907	79.29888	215.53795	-603.10602	20.42420	165.54332	-674.84393	56.58751	155.61742	-711.09863	152.27873	216.36069	-796.01031	172.18362	184.08807	-770.89197	222.38820	205.10330	-594.41144	222.55737	173.38995	-882.51379	296.25983	144.75235	-561.05255	262.20197	166.13171	-667.25879	299.14923	159.68251	-630.01367	307.64542	162.42415	-528.08221	303.93027	146.41638	-693.49988	-65.99255	1546.44702	-790.46820	104.77489	1057.88306	-766.32959	-4.14529	207.54257	-794.27625	56.55670	175.01082	-765.60846	-31.24025	487.97522	-558.97833	-39.68223	164.09937	-876.00970	-78.74700	141.30463	-697.43646	-44.00001	716.51746	-720.10822	-20.84202	567.09052	-674.99310	172.02748	156.59265	-622.40717	-77.23661	159.38016	-637.56744	285.80075	875.27216				-517.64142	-72.96933	142.74449	-587.04236	1.12884	800.09326	-688.80170	276.99405	744.55286	-670.55481	23.04729	519.60266	-723.57263	296.81003	1529.07349	-580.86218	219.64919	811.07550				-690.99591	146.74001	571.84711	-706.59528	-24.42290	614.74908	-657.11554	-64.01211	855.69073	
121	2.400	-668.37573	133.02881	1849.43738	-620.24591	112.74837	1436.22424	-592.66742	-0.34673	1046.41345	-580.31927	224.46675	1066.17395				-724.89594	253.15282	637.81860	-730.52502	248.73021	575.03937	-676.47101	208.58325	531.81183	-771.05420	256.74255	502.23193	-663.39856	-66.19433	163.90695	-716.65479	79.57881	215.70985	-603.17566	20.43851	165.60051	-674.54834	56.68682	155.72682	-710.99628	152.12532	216.54091	-795.94550	172.21333	183.91669	-771.17743	222.05788	205.32137	-594.48499	222.66698	173.38101	-882.60010	295.98544	144.47417	-561.27161	262.14478	165.82742	-667.38330	299.11551	159.68759	-629.98749	307.69446	162.45454	-528.16150	304.17200	146.42805	-693.11108	-66.01783	1546.41370	-790.50891	104.64756	1057.92175	-766.39539	-4.07029	207.70581	-794.36108	56.66460	174.96753	-765.60846	-31.24025	487.97522	-559.02747	-39.64981	164.12547	-875.88989	-78.68946	141.24074	-697.54871	-43.95185	716.47693	-720.18921	-20.91104	567.12262	-674.58844	171.64180	156.97386	-622.40198	-77.13537	159.45935	-637.56744	285.80075	875.27216				-517.59998	-72.82465	142.80583	-587.23981	1.05239	800.17163	-688.75800	276.94089	744.30719	-670.63129	23.14736	519.45978	-723.33887	296.79047	1529.21594	-580.73114	219.58255	811.13312				-691.49481	146.49039	571.43134	-706.69928	-24.35041	614.67017	-657.11554	-64.01211	855.69073	
122	2.420	-667.39032	132.89633	1849.43799	-620.01245	112.34618	1436.24414	-592.66742	-0.34673	1046.41345	-580.27362	224.50949	1066.10022	-693.78491	84.08924	572.55536	-725.06885	253.15862	637.97565	-730.53058	248.87415	575.04688	-676.48743	208.42810	531.75610	-771.09473	256.63608	502.25067	-663.34894	-66.29913	163.95227	-716.59003	79.42818	215.80826	-603.19385	20.53817	165.40674	-674.61060	56.87976	156.02254	-711.09863	152.27873	216.36069	-795.90802	172.20782	183.97916	-771.03003	222.34607	205.07814	-594.48499	222.66698	173.38101	-882.72101	296.03165	144.44339	-561.15167	262.11371	165.95934	-667.14111	299.03937	159.61028	-629.99133	307.76962	162.35930	-528.17535	304.50842	146.34596	-692.70874	-66.40749	1546.63562	-790.55420	104.50920	1057.95410	-766.43713	-4.01047	207.74127	-794.44348	56.53633	175.06004	-765.74481	-31.31589	488.02380	-558.87860	-39.76914	164.12363	-875.84143	-78.79816	141.14836	-697.53748	-44.22422	716.72009	-720.26849	-21.12489	567.25330	-674.56458	171.75276	157.07715	-622.44006	-77.46265	159.41048	-637.56744	285.80075	875.27216				-517.59534	-72.73141	142.65703	-587.34113	0.83896	799.99146	-688.75800	276.94089	744.30719	-670.63129	23.14736	519.45978	-722.97046	296.80484	1529.45947	-580.96313	219.49232	811.00836				-691.54956	146.56535	571.62927	-706.81396	-24.51017	614.69965	-657.10309	-64.12525	855.62225	
123	2.440	-666.92395	132.23640	1849.38110	-619.94354	112.26592	1436.16528	-592.84454	-0.39105	1046.33289	-580.27362	224.50949	1066.10022	-694.67322	84.28011	572.90924	-725.13025	253.18611	638.14172	-730.54840	248.78659	575.15778	-676.59412	208.49879	531.90216	-770.98621	256.71973	502.27057	-663.41058	-66.29012	164.04163	-716.34888	79.39288	215.39079	-603.03870	20.51245	165.56273	-674.68011	56.66887	155.79681	-711.19220	152.30917	216.26596	-795.90802	172.20782	183.97916	-771.03137	222.17360	205.29050	-594.48499	222.66698	173.38101	-882.57355	295.99719	144.45621	-561.20868	262.07919	165.85428	-667.13019	299.28729	159.73390	-629.99133	307.76962	162.35930	-528.22040	304.39551	146.35756	-692.16132	-66.49376	1546.72241	-790.60010	104.41608	1058.03613	-766.26495	-3.97786	207.56729	-794.38922	56.47982	175.02777	-765.93500	-31.36332	488.14435	-558.99988	-39.65767	163.95480	-875.99139	-78.70409	141.37393	-697.62659	-44.17074	716.55060	-720.26849	-21.12489	567.25330	-674.56458	171.75276	157.07715	-622.35822	-77.30353	159.37196	-637.48895	285.66980	875.32721				-517.67206	-72.82037	142.92558	-587.24017	0.91152	800.09741				-670.79132	23.19632	519.41626	-722.89307	296.17050	1529.19250	-581.10126	219.53140	811.10028				-691.31287	146.49454	571.59052	-706.71368	-24.47510	614.83594	-657.10309	-64.12525	855.62225	
124	2.460	-665.62219	132.34962	1849.33679	-619.62384	112.19030	1436.29028	-592.63525	-0.60649	1046.50073	-580.18042	224.31430	1066.44507	-694.13666	84.06476	572.58527	-725.13025	253.18611	638.14172	-730.55267	248.62268	575.02191	-676.52423	208.42796	531.84955	-771.16278	256.65891	502.21204	-663.41058	-66.29012	164.04163	-716.60138	79.26321	215.57410	-603.12189	20.48805	165.47878	-674.68011	56.66887	155.79681	-711.15466	152.42155	216.23610	-796.01031	172.18362	184.08807	-770.95398	222.46404	205.16347	-594.48499	222.66698	173.38101	-882.60834	296.06894	144.52896	-561.10358	262.16519	166.06924	-667.25879	299.14923	159.68251	-629.98749	307.69446	162.45454	-528.19830	304.30228	146.37737	-691.69684	-66.60786	1546.73816	-790.77106	104.48241	1057.96765	-766.35120	-4.01843	207.70609	-794.45935	56.72784	175.02597	-765.82550	-31.46542	487.95761	-559.12463	-39.57164	163.95691	-875.80096	-78.78884	141.48030	-697.83105	-45.54621	716.46783	-720.18921	-20.91104	567.12262	-674.69604	171.76524	157.19482	-622.40698	-77.52867	159.38678	-637.56744	285.80075	875.27216	-689.27399	276.73730	744.65881	-517.72015	-72.88586	142.72130	-587.49005	0.36893	800.02246				-670.80713	22.97641	519.53149	-721.60217	296.85040	1529.33081	-581.10126	219.53140	811.10028				-691.67072	146.33304	571.11816	-707.03711	-24.43043	614.74939	-657.21130	-64.14515	855.71191	
